<?xml version="1.0" standalone="no"?>
<!DOCTYPE svg PUBLIC "-//W3C//DTD SVG 20010904//EN"
 "http://www.w3.org/TR/2001/REC-SVG-20010904/DTD/svg10.dtd">
<svg version="1.0" xmlns="http://www.w3.org/2000/svg"
 width="800.000000pt" height="800.000000pt" viewBox="0 0 800.000000 800.000000"
 preserveAspectRatio="xMidYMid meet">
<metadata>
Created by potrace 1.11, written by Peter Selinger 2001-2013
</metadata>
<g transform="translate(0.000000,800.000000) scale(0.100000,-0.100000)"
fill="#000000" stroke="none">
<path d="M4247 7404 c-4 -5 -24 -9 -45 -10 -20 -1 -37 -3 -37 -4 0 -2 -66 -8
-166 -14 -82 -5 -102 -8 -166 -22 -16 -4 -46 -8 -68 -9 -22 -1 -40 -4 -40 -5
0 -1 -11 -3 -25 -5 -45 -6 -118 -19 -165 -29 -11 -2 -33 -9 -48 -15 -15 -6
-42 -13 -59 -16 -17 -3 -52 -15 -77 -27 -25 -12 -59 -22 -76 -24 -44 -5 -63
-10 -135 -34 -36 -12 -72 -23 -80 -25 -8 -2 -40 -13 -70 -25 -30 -12 -62 -23
-71 -25 -8 -2 -31 -11 -51 -22 -65 -34 -163 -81 -225 -108 -35 -15 -63 -32
-63 -37 0 -5 -4 -6 -10 -3 -5 3 -10 1 -10 -4 0 -6 -11 -11 -25 -11 -14 0 -25
-4 -25 -9 0 -4 -20 -16 -44 -25 -25 -9 -50 -24 -56 -32 -7 -7 -21 -14 -31 -14
-10 0 -22 -6 -26 -14 -4 -8 -10 -14 -13 -13 -3 1 -12 -4 -20 -10 -92 -77 -147
-118 -158 -120 -8 -1 -24 -11 -36 -22 -12 -12 -25 -21 -29 -21 -4 0 -16 -8
-26 -17 -10 -10 -47 -40 -81 -68 -219 -176 -399 -351 -439 -428 -8 -14 -18
-24 -23 -21 -4 3 -8 0 -8 -7 0 -7 -19 -33 -42 -58 -54 -59 -156 -199 -174
-241 -4 -8 -16 -27 -26 -42 -11 -16 -17 -28 -14 -28 3 0 -6 -11 -19 -25 -29
-33 -58 -92 -50 -105 3 -6 -3 -10 -15 -10 -12 0 -19 -4 -15 -9 3 -5 1 -12 -5
-16 -5 -3 -10 -15 -10 -26 0 -10 -4 -19 -10 -19 -5 0 -10 -9 -10 -20 0 -10 -6
-23 -14 -27 -8 -4 -16 -12 -17 -18 -4 -20 -24 -60 -36 -73 -7 -8 -11 -17 -8
-22 3 -4 -2 -13 -10 -20 -13 -11 -33 -65 -35 -95 -1 -5 -7 -20 -15 -31 -11
-17 -11 -24 -2 -34 9 -10 9 -11 0 -6 -12 6 -18 -5 -14 -26 0 -5 -4 -8 -11 -8
-6 0 -8 -3 -5 -7 4 -3 1 -13 -6 -21 -10 -13 -9 -15 3 -8 12 6 11 5 -1 -6 -9
-7 -15 -23 -14 -35 1 -12 -5 -25 -12 -28 -8 -2 -11 -10 -8 -15 4 -6 2 -16 -3
-23 -5 -7 -8 -20 -7 -30 2 -9 -1 -15 -5 -12 -5 3 -11 1 -15 -5 -3 -5 -1 -10 6
-10 9 0 9 -3 0 -14 -9 -11 -9 -15 1 -19 9 -4 7 -6 -4 -6 -10 -1 -15 -8 -14
-18 2 -10 -4 -24 -13 -31 -14 -11 -14 -11 4 -6 18 5 18 4 3 -8 -12 -11 -14
-18 -6 -32 8 -13 7 -17 0 -12 -11 6 -17 -9 -27 -60 -2 -10 -4 -19 -6 -19 -1 0
-3 -9 -5 -20 -2 -18 -15 -83 -29 -155 -3 -14 -7 -50 -9 -80 -3 -30 -5 -55 -6
-55 -1 0 -4 -24 -6 -54 -2 -30 -6 -57 -9 -59 -3 -3 1 -12 8 -20 9 -13 9 -14 0
-8 -16 9 -14 27 -17 -231 -2 -150 1 -210 8 -206 8 5 8 3 0 -8 -13 -17 -11
-188 3 -197 5 -4 9 -19 8 -34 -1 -16 3 -28 9 -28 6 0 4 -5 -4 -10 -12 -8 -12
-10 5 -11 11 0 14 -3 8 -6 -17 -6 -17 -33 0 -33 8 0 8 -3 2 -8 -12 -8 -13 -22
-2 -39 5 -8 3 -13 -5 -13 -9 0 -9 -3 2 -10 11 -7 11 -10 2 -10 -8 0 -10 -5 -5
-12 4 -7 8 -17 9 -23 5 -29 10 -41 19 -47 6 -5 5 -8 -3 -8 -10 0 -10 -5 -1
-21 6 -13 7 -19 1 -15 -11 6 -11 -12 -1 -29 4 -5 5 -18 4 -27 -2 -11 3 -18 13
-18 15 0 15 -2 2 -10 -13 -9 -13 -11 0 -20 11 -7 11 -10 2 -10 -8 0 -10 -5 -5
-12 4 -7 8 -17 9 -23 5 -24 13 -63 22 -102 5 -24 8 -43 5 -43 -3 0 0 -7 7 -15
7 -9 10 -18 7 -22 -4 -3 -2 -12 4 -20 6 -7 9 -13 5 -13 -3 0 1 -17 9 -37 9
-21 16 -40 17 -43 3 -19 12 -29 22 -23 7 5 7 2 -1 -8 -10 -12 -9 -20 1 -40 7
-13 10 -31 8 -38 -3 -9 0 -11 8 -6 10 6 12 4 7 -8 -3 -9 -2 -19 4 -22 5 -4 7
-10 5 -13 -2 -4 2 -18 11 -32 8 -14 12 -17 9 -7 -4 11 -2 16 5 12 5 -4 7 -15
4 -25 -3 -10 2 -25 11 -34 9 -10 14 -19 11 -22 -3 -3 3 -14 13 -24 11 -11 16
-27 13 -39 -3 -12 0 -27 6 -34 6 -8 12 -22 14 -33 6 -32 40 -93 49 -88 4 3 5
-1 2 -9 -3 -8 2 -21 10 -30 9 -9 16 -23 16 -32 0 -9 4 -13 10 -10 6 3 7 -1 4
-9 -3 -9 -1 -16 5 -16 6 0 11 -7 11 -16 0 -9 5 -12 12 -8 6 4 8 3 5 -4 -10
-15 3 -43 16 -35 6 3 7 1 3 -5 -10 -17 34 -88 47 -76 3 3 4 -2 1 -13 -3 -11 6
-29 21 -45 14 -16 22 -28 18 -28 -4 0 -1 -6 8 -13 8 -7 26 -31 39 -55 13 -23
28 -42 32 -42 5 0 7 -4 4 -9 -4 -5 -3 -11 2 -13 4 -1 23 -24 42 -50 18 -27 37
-48 42 -48 4 0 7 -4 5 -8 -3 -11 59 -87 133 -163 30 -31 96 -99 145 -150 50
-52 118 -114 152 -139 35 -25 63 -50 63 -56 0 -7 6 -14 13 -17 6 -3 55 -40
107 -82 52 -43 110 -85 128 -93 17 -9 32 -18 32 -22 0 -3 22 -17 50 -31 27
-13 50 -27 50 -31 0 -5 7 -8 15 -8 8 0 15 -3 15 -8 0 -4 15 -13 33 -21 17 -8
52 -30 77 -49 25 -18 79 -49 120 -69 101 -47 108 -50 165 -72 28 -10 80 -33
118 -50 37 -17 73 -31 81 -31 7 0 16 -3 20 -7 3 -4 14 -8 22 -9 9 -1 23 -6 32
-10 15 -6 34 -11 68 -18 6 -1 22 -9 35 -17 13 -9 49 -21 79 -28 30 -7 62 -15
70 -17 8 -3 15 -5 15 -4 0 0 23 -6 50 -14 49 -15 85 -23 135 -32 39 -6 53 -10
75 -17 25 -8 67 -16 120 -23 41 -5 92 -13 133 -20 13 -3 46 -6 75 -9 29 -2 52
-4 52 -5 0 -6 200 -22 270 -21 99 1 330 8 330 10 0 1 36 4 80 5 44 2 98 7 119
11 22 4 54 8 70 10 17 2 31 4 31 5 0 1 32 6 100 15 17 2 48 6 70 9 22 4 56 8
75 11 19 3 62 10 95 16 33 7 69 13 80 14 11 1 27 5 35 8 54 20 118 36 174 43
22 2 52 11 68 18 15 8 28 10 28 5 0 -6 6 -7 13 -2 6 4 17 8 22 8 6 1 9 6 8 12
-1 6 6 9 15 6 10 -2 31 1 47 8 17 7 32 13 35 14 58 18 93 25 97 21 3 -3 15 0
27 7 27 15 87 37 103 37 6 0 24 5 40 12 15 6 31 12 36 13 4 2 8 3 10 5 1 1 11
3 22 5 11 2 21 9 23 15 2 5 8 8 13 5 5 -4 39 8 75 26 36 17 71 32 78 33 45 9
98 29 110 42 8 8 19 15 23 16 12 1 56 19 73 29 8 5 27 14 43 20 15 6 27 15 27
20 0 5 3 8 8 7 10 -4 116 40 177 72 154 82 194 106 230 135 22 17 51 38 65 45
14 7 52 30 85 52 l60 40 0 162 c0 88 -4 166 -8 173 -4 6 -2 13 4 15 9 3 9 9 0
25 -7 13 -7 24 -2 28 13 7 10 45 -4 45 -5 0 -4 4 4 9 9 6 10 11 2 15 -6 4 -8
12 -5 18 10 16 12 98 3 104 -5 3 -6 11 -2 17 11 18 11 117 0 117 -5 0 -4 7 3
15 9 11 10 19 1 28 -8 10 -7 17 1 25 7 7 8 12 2 12 -6 0 -11 7 -11 15 0 8 4
15 9 15 4 0 8 5 8 11 0 5 -4 8 -8 5 -12 -7 -11 26 1 41 6 9 5 13 -4 13 -9 0
-10 3 -4 8 6 4 10 16 10 27 0 11 -4 23 -10 27 -7 5 -6 8 0 8 7 0 11 29 11 75
0 43 -5 75 -10 75 -6 0 -5 5 1 11 8 8 8 20 2 36 -5 13 -6 22 -1 19 12 -7 10
248 -2 256 -8 6 -8 8 0 8 17 0 18 237 2 258 -9 11 -9 14 -1 9 9 -6 12 4 10 38
-1 25 -6 45 -12 45 -5 0 -4 4 3 8 13 9 12 38 -2 61 -6 9 -5 12 2 7 13 -8 11
132 -2 153 -6 9 -5 12 2 7 15 -9 13 77 -2 86 -7 5 -7 8 3 8 11 0 11 3 0 17
-10 11 -10 14 -1 9 14 -8 12 19 -2 43 -6 10 -5 12 2 7 16 -10 15 16 0 33 -10
11 -10 13 0 7 6 -4 12 -3 12 3 0 5 -6 12 -12 14 -10 4 -10 6 0 6 6 1 12 10 12
22 0 13 -4 18 -12 13 -9 -5 -9 -2 1 9 11 14 11 17 0 17 -10 0 -10 3 -3 8 13 8
13 50 0 71 -6 9 -5 12 1 8 7 -4 10 23 10 78 0 52 -4 85 -11 85 -6 0 -5 5 2 12
15 15 16 31 0 22 -7 -5 -8 -3 -2 7 4 8 9 20 10 27 2 11 0 11 -14 0 -12 -10
-14 -10 -8 0 4 7 1 12 -8 12 -9 0 -16 -6 -16 -12 0 -10 -2 -10 -8 0 -11 16
-174 15 -184 -2 -6 -8 -8 -8 -8 2 0 16 -27 16 -33 0 -4 -10 -6 -10 -6 0 -1 6
-11 12 -24 12 -13 0 -29 -6 -36 -12 -11 -10 -13 -10 -7 0 5 8 -1 12 -18 12
-13 0 -27 -6 -29 -12 -4 -9 -6 -10 -6 -1 -1 18 -997 19 -1019 1 -12 -10 -14
-10 -8 0 5 8 0 12 -16 12 -13 0 -30 -6 -37 -12 -11 -10 -13 -10 -7 0 4 6 2 12
-4 12 -7 0 -10 -249 -9 -860 0 -473 -2 -864 -6 -870 -10 -17 -102 -60 -110
-52 -5 4 -5 1 -1 -5 6 -12 -11 -18 -36 -14 -5 0 -8 -4 -8 -9 0 -6 -6 -10 -12
-10 -7 0 -35 -11 -63 -25 -27 -13 -58 -25 -67 -25 -10 0 -18 -5 -18 -12 0 -6
-3 -8 -6 -5 -4 3 -16 1 -28 -5 -11 -7 -23 -13 -26 -13 -3 -1 -24 -7 -48 -14
-39 -11 -42 -14 -31 -29 11 -14 11 -15 -1 -4 -17 14 -44 16 -35 2 3 -6 -1 -7
-9 -4 -10 4 -16 1 -16 -7 0 -11 -2 -11 -8 -1 -7 10 -14 10 -38 -3 -16 -8 -37
-15 -46 -15 -10 0 -18 -5 -18 -11 0 -5 -4 -8 -9 -4 -5 3 -12 1 -15 -4 -3 -5
-15 -7 -26 -4 -11 3 -20 1 -20 -4 0 -5 -10 -10 -22 -11 -31 -2 -73 -9 -73 -12
0 -2 -19 -4 -103 -11 -24 -1 -45 -6 -47 -10 -3 -3 -16 -5 -30 -4 -14 2 -25 0
-25 -3 0 -4 -46 -6 -102 -6 -222 4 -413 24 -548 59 -76 19 -270 84 -285 94 -5
4 -37 18 -70 31 -33 13 -68 30 -77 38 -10 8 -18 12 -18 9 0 -7 -29 8 -87 46
-24 15 -45 27 -47 27 -3 0 -17 11 -31 26 -14 14 -30 22 -37 18 -7 -4 -8 -3 -4
4 4 7 1 12 -8 12 -9 0 -16 5 -16 10 0 6 -5 10 -10 10 -6 0 -23 12 -39 27 -16
16 -56 53 -90 83 -34 30 -70 63 -79 73 -79 84 -112 122 -112 128 0 4 -6 14
-14 22 -8 7 -28 37 -46 65 -17 29 -36 49 -42 46 -6 -4 -9 -1 -6 7 3 8 -10 35
-28 61 -38 56 -149 280 -154 313 -1 6 -9 18 -17 28 -9 9 -13 17 -8 17 4 0 2 7
-5 15 -7 8 -10 22 -6 30 3 9 2 13 -4 10 -5 -3 -12 11 -15 32 -3 21 -17 75 -31
120 -14 46 -27 102 -29 125 -4 44 -14 129 -20 183 -7 53 -7 378 -1 435 3 30 8
82 11 115 3 33 17 108 31 167 14 59 25 110 25 113 -1 3 6 19 14 35 9 17 13 30
11 30 -2 0 6 27 19 59 13 33 20 62 17 65 -3 3 0 6 6 6 7 0 12 5 12 11 0 5 11
34 24 62 13 29 34 74 45 102 12 27 25 52 29 55 5 3 19 23 32 45 26 44 109 172
125 194 35 47 225 239 300 302 22 19 44 40 48 46 4 7 14 13 22 13 7 0 15 4 17
9 9 25 358 221 393 221 9 0 23 4 33 9 73 37 301 96 417 108 44 4 78 9 95 13 6
1 297 -2 353 -3 20 -1 37 -4 37 -7 0 -3 12 -5 26 -5 15 1 60 -4 102 -11 41 -8
78 -11 83 -9 4 3 10 1 14 -5 3 -6 17 -8 31 -6 13 3 22 1 19 -4 -3 -5 3 -9 12
-9 32 0 77 -10 121 -25 23 -8 45 -15 47 -15 12 0 91 -25 100 -31 6 -4 28 -13
50 -20 22 -7 45 -17 52 -22 7 -5 16 -7 22 -4 5 3 11 2 13 -2 3 -9 114 -62 130
-62 6 0 24 -10 41 -22 18 -13 32 -21 32 -19 0 6 147 -68 165 -83 8 -7 27 -17
43 -24 15 -6 27 -16 27 -22 0 -5 3 -9 8 -8 9 4 74 -23 88 -37 22 -19 49 -40
84 -65 19 -13 51 -40 71 -60 20 -19 49 -42 65 -50 15 -8 40 -27 55 -42 14 -16
32 -28 38 -28 7 0 9 -4 6 -10 -3 -5 2 -10 12 -10 19 0 40 20 94 90 18 24 40
51 47 59 7 7 39 46 70 85 31 39 59 73 62 76 23 20 68 89 62 95 -4 5 -2 5 4 2
7 -4 20 5 30 21 10 15 70 90 134 167 64 77 131 160 150 185 19 25 40 48 45 52
6 5 6 8 1 8 -6 0 5 12 22 26 18 15 32 33 32 40 0 8 4 14 8 14 16 0 123 140
116 152 -4 6 -3 8 3 5 10 -6 15 -1 72 71 l34 42 -23 25 c-14 14 -51 45 -83 68
-32 23 -71 53 -86 67 -64 56 -83 70 -97 70 -8 0 -14 4 -14 8 0 8 -47 34 -60
34 -3 0 -9 6 -13 13 -4 8 -23 21 -41 30 -18 9 -42 24 -52 34 -11 9 -34 24 -51
31 -18 8 -33 19 -33 23 0 5 -4 6 -9 2 -6 -3 -14 3 -20 12 -6 10 -11 14 -11 10
0 -7 -63 25 -114 58 -12 8 -26 12 -29 8 -4 -3 -7 -1 -7 5 0 7 -7 12 -16 12 -9
0 -28 9 -44 20 -15 11 -30 17 -34 13 -3 -3 -6 2 -6 12 0 10 -3 16 -6 12 -7 -7
-58 11 -144 51 -98 45 -167 72 -184 72 -9 0 -16 4 -16 9 0 4 -21 14 -46 21
-25 7 -62 21 -82 32 -20 10 -44 18 -53 18 -9 0 -33 7 -53 15 -20 8 -39 15 -43
15 -15 -1 -118 33 -128 42 -5 4 -20 8 -33 8 -13 0 -31 4 -40 9 -9 5 -37 11
-62 14 -65 9 -101 17 -119 26 -9 5 -32 10 -51 12 -19 2 -39 5 -45 8 -5 3 -21
6 -35 7 -14 2 -38 5 -55 8 -16 3 -41 8 -55 10 -14 3 -25 5 -25 6 0 1 -11 3
-25 5 -14 2 -37 6 -52 9 -15 4 -77 7 -138 9 -60 1 -110 5 -110 8 0 4 -21 7
-47 7 -41 1 -88 7 -88 12 0 6 -228 4 -232 -3 -3 -4 -10 -4 -16 1 -13 9 -98 8
-115 -2 -6 -3 -12 -1 -14 5 -2 5 -7 7 -11 3z"/>
</g>
</svg>
